# xmcd
#
# Track frame offsets: 
#        150
#        18861
#        37586
#        56297
#
# Disc length: 997 seconds
#
# Revision: 1
# Processed by: cddbd v1.5.2PL0 Copyright (c) Steve Scherf et al.
# Submitted via: ExactAudioCopy v1.0b3
#
DISCID=1c03e304
DTITLE=栗林みな実 - Crystal Energy
DYEAR=2006
DGENRE=Anime
TTITLE0=Crystal Energy
TTITLE1=風と星に抱かれて…
TTITLE2=Crystal Energy (instrumental)
TTITLE3=風と星に抱かれて… (instrumental)
EXTD=YEAR: 2006
EXTT0=
EXTT1=
EXTT2=
EXTT3=
PLAYORDER=
